<svg xmlns="http://www.w3.org/2000/svg" width="50" height="39" viewBox="0 0 50 39">
  <g fill="none" fill-rule="evenodd" transform="translate(0 -6)">
    <rect width="50" height="50"/>
    <path fill="#000000" fill-rule="nonzero" d="M3,6 C1.3545455,6 0,7.3545455 0,9 L0,42 C0,43.645455 1.3545455,45 3,45 L10,45 C10.5522619,44.9999448 10.9999448,44.5522619 11,44 L11,42.5 C11.0001753,42.1961373 10.8621937,41.9086755 10.625,41.71875 C10.209709,41.372674 10,40.966667 10,40.5 C10,39.62381 10.62381,39 11.5,39 C12.37619,39 13,39.62381 13,40.5 C13,40.966667 12.790291,41.372674 12.375,41.71875 C12.1378063,41.9086755 11.9998247,42.1961373 12,42.5 L12,44 C12.0000552,44.5522619 12.4477381,44.9999448 13,45 L37,45 C37.5522619,44.9999448 37.9999448,44.5522619 38,44 L38,42.5 C38.0001753,42.1961373 37.8621937,41.9086755 37.625,41.71875 C37.209709,41.372674 37,40.966667 37,40.5 C37,39.62381 37.62381,39 38.5,39 C39.37619,39 40,39.62381 40,40.5 C40,40.966667 39.790291,41.372674 39.375,41.71875 C39.1378063,41.9086755 38.9998247,42.1961373 39,42.5 L39,44 C39.0000552,44.5522619 39.4477381,44.9999448 40,45 L47,45 C48.645455,45 50,43.645455 50,42 L50,9 C50,7.3545455 48.645455,6 47,6 L3,6 Z M3,8 L47,8 C47.554545,8 48,8.4454545 48,9 L48,42 C48,42.554545 47.554545,43 47,43 L41,43 L41,42.8125 C41.559984,42.187377 42,41.417577 42,40.5 C42,38.57619 40.42381,37 38.5,37 C36.57619,37 35,38.57619 35,40.5 C35,41.417577 35.440016,42.187377 36,42.8125 L36,43 L14,43 L14,42.8125 C14.559984,42.187377 15,41.417577 15,40.5 C15,38.57619 13.42381,37 11.5,37 C9.5761905,37 8,38.57619 8,40.5 C8,41.417577 8.440016,42.187377 9,42.8125 L9,43 L3,43 C2.4454545,43 2,42.554545 2,42 L2,9 C2,8.4454545 2.4454545,8 3,8 Z M16.46875,12 C14.027546,12.05548 12.294325,13.127257 11.5625,14.75 C10.894559,16.231087 11.013172,17.961091 11.4375,19.75 C11.200557,20.116601 11.053115,20.55551 11.125,21.09375 L11.09375,21.09375 C11.09625,21.12077 11.12203,21.12958 11.125,21.15625 C11.22288,22.035101 11.642114,22.601454 12.15625,22.96875 C12.267159,23.462953 12.379349,23.968766 12.59375,24.375 C12.736913,24.646256 12.89041,24.875915 13.0625,25.09375 C13.09203,25.13113 13.15793,25.15126 13.1875,25.1875 L13.1875,26.5625 C13.063218,26.777068 12.836459,27.020414 12.28125,27.28125 C11.672109,27.567424 10.83754,27.829373 9.96875,28.1875 C9.0999598,28.545627 8.1668033,28.999172 7.40625,29.75 C6.6456967,30.500828 6.0895858,31.593713 6,32.9375 L5.9375,34 L7,34 L26,34 L27.0625,34 L27,32.9375 C26.910414,31.593713 26.349961,30.500379 25.59375,29.75 C24.837539,28.999621 23.917615,28.545455 23.0625,28.1875 C22.207385,27.829545 21.417814,27.56226 20.84375,27.28125 C20.313265,27.021572 20.089124,26.815371 20,26.625 C19.95808,26.162387 19.98168,25.723542 20,25.1875 C20.03202,25.14567 20.09385,25.10517 20.125,25.0625 C20.288912,24.837964 20.434338,24.583901 20.5625,24.3125 C20.757075,23.900458 20.871445,23.423166 20.96875,22.9375 C21.097139,22.83987 21.278543,22.84489 21.375,22.71875 C21.678973,22.321247 21.850623,21.837199 21.96875,21.1875 L22,21.15625 C22.09122,20.608913 21.91973,20.158984 21.6875,19.78125 C21.94198,18.924904 22.204314,17.777632 22.09375,16.5 C22.02711,15.729987 21.823702,14.906306 21.3125,14.21875 C20.836305,13.578278 20.05571,13.135287 19.125,12.96875 C18.853722,12.721441 18.64066,12.40431 18.3125,12.28125 C17.758583,12.073531 17.140909,12 16.5,12 L16.46875,12 Z M16.5,14 C16.51285,14 16.5185,13.999893 16.53125,14 C16.973864,14.0037 17.354557,14.06655 17.59375,14.15625 C17.839833,14.24853 17.905321,14.341892 17.90625,14.34375 L18.15625,14.8125 L18.6875,14.90625 C19.262965,14.97818 19.483077,15.131306 19.6875,15.40625 C19.891923,15.681194 20.047886,16.126263 20.09375,16.65625 C20.18548,17.716225 19.861101,19.082668 19.65625,19.65625 L19.375,20.5 L20,20.84375 C19.93061,21.187092 19.849185,21.343914 19.8125,21.40625 L19.1875,21.40625 L19.09375,22.3125 C19.05951,22.65487 18.918677,23.111552 18.75,23.46875 C18.66566,23.647349 18.595463,23.818286 18.53125,23.90625 L18,24.1875 L18,24.8125 C18,25.529167 17.883462,26.098946 18,27.03125 L18.03125,27.125 L18.0625,27.21875 C18.392966,28.168841 19.170939,28.71851 19.9375,29.09375 C20.704061,29.46899 21.555115,29.745455 22.3125,30.0625 C23.069885,30.379545 23.728086,30.731629 24.1875,31.1875 C24.385835,31.384305 24.399939,31.7528 24.53125,32 L8.46875,32 C8.6001984,31.753149 8.6133419,31.384111 8.8125,31.1875 C9.2738217,30.732078 9.9500402,30.379373 10.71875,30.0625 C11.48746,29.745627 12.337266,29.463826 13.125,29.09375 C13.912734,28.723674 14.724236,28.234256 15.125,27.3125 L15.1875,27.09375 L15.1875,26.90625 L15.1875,24.8125 L15.1875,24.1875 L14.75,23.96875 C14.75378,23.970892 14.725087,23.941757 14.71875,23.9375 L14.65625,23.90625 C14.650101,23.899497 14.662482,23.882888 14.65625,23.875 C14.581465,23.780335 14.469337,23.616244 14.375,23.4375 C14.186326,23.080013 14.030953,22.622031 14,22.3125 L13.90625,21.40625 L13.21875,21.40625 C13.19793,21.36673 13.12696,21.271503 13.09375,20.90625 L13.09375,20.875 L13.09375,20.84375 L13.6875,20.53125 L13.46875,19.75 C13.000838,18.018726 12.956825,16.489757 13.375,15.5625 C13.790264,14.641696 14.571378,14.051733 16.5,14 Z M37.6875,16 C33.0875,16 30,19.5875 30,23.6875 C30,27.5875 33,30 36.5,30 C37.9,30 39.0125,29.8125 40.3125,29.3125 L40.09375,28.1875 C39.29375,28.5875 38.19375,28.8125 37.09375,28.8125 C33.99375,28.8125 31.8125,26.9 31.8125,23.5 C31.8125,19.6 34.4875,17.1875 37.6875,17.1875 C40.8875,17.1875 42.59375,19.2125 42.59375,21.8125 C42.59375,24.1125 41.49375,25.1875 40.59375,25.1875 C39.99375,25.1875 39.89375,24.7 40.09375,23.5 L40.6875,19.8125 C40.0875,19.5125 39.0875,19.3125 38.1875,19.3125 C35.1875,19.3125 33.3125,21.5 33.3125,24 C33.3125,25.6 34.29375,26.59375 35.59375,26.59375 C36.69375,26.59375 37.6125,26.09375 38.3125,25.09375 C38.4125,26.09375 39.09375,26.59375 40.09375,26.59375 C42.29375,26.59375 44,24.8125 44,21.8125 C44,18.4125 41.3875,16 37.6875,16 Z M37.8125,20.90625 C38.0125,20.90625 38.20625,21 38.40625,21 L38.1875,22.90625 C37.9875,24.10625 37.20625,25 36.40625,25 C35.80625,25 35.40625,24.6125 35.40625,23.8125 C35.40625,22.2125 36.4125,20.90625 37.8125,20.90625 Z"/>
  </g>
</svg>
