<svg xmlns="http://www.w3.org/2000/svg" width="36" height="46" viewBox="0 0 36 46">
  <g fill="none" fill-rule="evenodd" transform="translate(-7 -2)">
    <rect width="50" height="50"/>
    <path fill="#000000" fill-rule="nonzero" d="M7,2 L7,3 L7,47 L7,48 L8,48 L42,48 L43,48 L43,47 L43,3 L43,2 L42,2 L8,2 L7,2 Z M9,4 L41,4 L41,46 L9,46 L9,4 Z M15,12 L15,14 L35,14 L35,12 L15,12 Z M15,22 L15,24 L28,24 L28,22 L15,22 Z M32,22 L32,24 L35,24 L35,22 L32,22 Z M15,28 L15,30 L23,30 L23,28 L15,28 Z M32,28 L32,30 L35,30 L35,28 L32,28 Z M15,34 L15,36 L28,36 L28,34 L15,34 Z M32,34 L32,36 L35,36 L35,34 L32,34 Z"/>
  </g>
</svg>
