<svg xmlns="http://www.w3.org/2000/svg" width="50" height="40" viewBox="0 0 50 40">
  <g fill="none" fill-rule="evenodd" transform="translate(-1 -4)">
    <rect width="50" height="50" x="1"/>
    <path fill="#000000" fill-rule="nonzero" d="M20,4 C18.354937,4 17,5.3549372 17,7 L17,10 L4,10 C2.3549372,10 1,11.354937 1,13 L1,21.6875 C0.939957503,21.8808629 0.939957503,22.0878871 1,22.28125 L1,41 C1,42.645063 2.3549372,44 4,44 L48,44 C49.645063,44 51,42.645063 51,41 L51,22.1875 C51.0277934,22.0535094 51.0277934,21.9152406 51,21.78125 L51,13 C51,11.354937 49.645063,10 48,10 L35,10 L35,7 C35,5.3549372 33.645063,4 32,4 L20,4 Z M20,6 L32,6 C32.562937,6 33,6.4370628 33,7 L33,10 L19,10 L19,7 C19,6.4370628 19.437063,6 20,6 Z M4,12 L48,12 C48.562937,12 49,12.437063 49,13 L49,21 L42,21 C42,19.908145 41.093084,19 40,19 L35,19 C33.906916,19 33,19.908145 33,21 L19,21 C19,19.908145 18.093084,19 17,19 L12,19 C10.9069156,19 10,19.908145 10,21 L3,21 L3,13 C3,12.437063 3.4370628,12 4,12 Z M12,21 L17,21 L17,21.6875 C16.9399575,21.8808629 16.9399575,22.0878871 17,22.28125 L17,23 L12,23 L12,22.1875 C12.0277934,22.0535094 12.0277934,21.9152406 12,21.78125 L12,21 Z M35,21 L40,21 L40,21.6875 C39.9399575,21.8808629 39.9399575,22.0878871 40,22.28125 L40,23 L35,23 L35,22.1875 C35.0277934,22.0535094 35.0277934,21.9152406 35,21.78125 L35,21 Z M3,23 L10,23 C10,24.091855 10.9069156,25 12,25 L17,25 C18.093084,25 19,24.091855 19,23 L33,23 C33,24.091855 33.906916,25 35,25 L40,25 C41.093084,25 42,24.091855 42,23 L49,23 L49,41 C49,41.562937 48.562937,42 48,42 L4,42 C3.4370628,42 3,41.562937 3,41 L3,23 Z"/>
  </g>
</svg>
