<svg xmlns="http://www.w3.org/2000/svg" width="47" height="43" viewBox="0 0 47 43">
  <g fill="none" fill-rule="evenodd" transform="translate(-1 -4)">
    <rect width="50" height="50"/>
    <path fill="#000000" fill-rule="nonzero" d="M8.90625,0.96875 L8.90625,0.96875 C9.01141238,0.962644011 9.11687915,0.973190688 9.21875,1 L9.3125,1 L38.78125,1 C38.8222016,0.986907327 38.8639549,0.976469003 38.90625,0.96875 C39.0010073,0.965783576 39.095705,0.976305546 39.1875,1 L46,1 C46.5522619,1.00005522 46.9999448,1.44773812 47,2 L47,26 C46.9999448,26.5522619 46.5522619,26.9999448 46,27 L39.21875,27 L38.8125,27 L9.21875,27 L8.8125,27 L2,27 C1.48236546,27.002232 1.04857078,26.6091056 1,26.09375 C0.998534497,26.0625172 0.998534497,26.0312328 1,26 L1,2 C1.00005522,1.44773812 1.44773812,1.00005522 2,1 L8.78125,1 L8.8125,1 C8.84321595,0.988044828 8.87450414,0.977615433 8.90625,0.96875 Z M3,3 L3,25 L8,25 L8,3 L3,3 Z M10,3 L10,25 L38,25 L38,3 L10,3 Z M40,3 L40,25 L45,25 L45,3 L40,3 Z M36.90625,27.96875 L36.90625,27.96875 C37.1928162,27.9416132 37.4771801,28.039266 37.6866154,28.2367336 C37.8960508,28.4342012 38.0102476,28.7123342 38,29 L38,32.125 C39.888916,32.668904 41.171221,33.157625 42,33.5 L42,29 C41.9948997,28.6393641 42.1843753,28.3039186 42.4958728,28.1221123 C42.8073704,27.9403059 43.1926296,27.9403059 43.5041272,28.1221123 C43.8156247,28.3039186 44.0051003,28.6393641 44,29 L44,35 C44.0023806,35.3458778 43.8258718,35.6684321 43.5332779,35.8528935 C43.2406841,36.0373548 42.8735473,36.0575336 42.5625,35.90625 C42.5625,35.90625 39.725057,34.451273 33.1875,32.96875 C26.649943,31.486227 16.472731,30 2,30 C1.44771526,30.0517767 0.958026727,29.6460347 0.906250033,29.09375 C0.854473339,28.5414653 1.26021526,28.0517767 1.8125,28 C1.84373285,27.998536 1.87501715,27.998536 1.90625,28 C1.93748282,27.9985345 1.96876718,27.9985345 2,28 C16.610269,28 26.933307,29.513773 33.625,31.03125 C34.518762,31.233928 35.266243,31.406701 36,31.59375 L36,29 C35.9885139,28.522976 36.3156215,28.1042783 36.78125,28 C36.8222016,27.9869073 36.8639549,27.976469 36.90625,27.96875 Z M1.71875,31 C1.74998296,30.9985408 1.78126704,30.9985408 1.8125,31 C1.84373285,30.998536 1.87501715,30.998536 1.90625,31 C1.93748282,30.9985345 1.96876718,30.9985345 2,31 C15.557568,31 25.17797,33.514506 31.4375,36.0625 C32.394202,36.451934 33.235384,36.826015 34,37.1875 L34,35.6875 C33.996071,35.1805792 34.3720437,34.7508961 34.875,34.6875 C35.161105,34.6514784 35.4488345,34.7407039 35.6643602,34.9322823 C35.8798859,35.1238607 36.0022299,35.3991449 36,35.6875 L36,38.1875 C37.304555,38.89922 38.266947,39.544327 39,40.0625 L39,37 C38.9948997,36.6393641 39.1843753,36.3039186 39.4958728,36.1221123 C39.8073704,35.9403059 40.1926296,35.9403059 40.5041272,36.1221123 C40.8156247,36.3039186 41.0051003,36.6393641 41,37 L41,42 C40.9981418,42.3909724 40.768622,42.7450112 40.4124601,42.9062921 C40.0562982,43.067573 39.6388115,43.0065182 39.34375,42.75 C39.34375,42.75 36.71122,40.389506 30.6875,37.9375 C24.66378,35.485494 15.309432,33 2,33 C1.44771527,33.077665 0.937040109,32.6929097 0.85937507,32.140625 C0.781710031,31.5883403 1.16646528,31.0776651 1.71875,31 Z M23.5921984,5.96706844 L24.9768138,5.96706844 L24.9768138,8.05861773 C25.9460446,8.193829 26.8417176,8.60791351 27.4647946,9.28396985 C28.1571022,9.96002619 28.507583,11.0459417 28.4383522,11.9248149 L28.4383522,12.0515755 L26.988833,12.0515755 L26.988833,11.9248149 C26.988833,11.1135473 26.707583,9.28396985 24.2845061,9.28396985 C23.0738867,9.28396985 22.2698198,9.62426326 21.8534977,10.286484 C21.6270067,10.6467509 21.5152753,11.1022976 21.5152753,11.650167 C21.5152753,13.137491 22.9691215,13.4628431 24.6306599,13.8684769 C26.5691215,14.2741107 28.7801792,14.8234065 28.8494099,17.4600262 C28.8494099,18.0008713 28.6417176,20.6290403 25.0417176,20.9670684 L25.0417176,22.4670684 L23.6571022,22.4670684 L23.6571022,20.9670684 C21.9955638,20.7642515 19.9186407,20.0966459 19.8494099,16.7839698 L19.8494099,16.5727022 L21.2989292,16.5727022 L21.2989292,16.7839698 C21.2989292,17.6628431 21.5239292,18.3980544 22.0777753,18.9388994 C22.9085446,19.8177727 24.2109484,19.8262234 24.3494099,19.8262234 C27.1186407,19.8262234 27.3998907,18.1360825 27.3998907,17.4600262 C27.3998907,15.837491 25.9460446,15.5628431 24.2845061,15.1572093 C22.3460446,14.7515755 20.1306599,14.2065051 20.1306599,11.5022797 C20.1306599,11.1642515 20.1998907,8.32904027 23.5921984,8.05861773 L23.5921984,5.96706844 Z" transform="translate(1 4)"/>
  </g>
</svg>
