<svg width="38px" height="48px" viewBox="0 0 38 48" version="1.1" xmlns="http://www.w3.org/2000/svg" xmlns:xlink="http://www.w3.org/1999/xlink">
  <g stroke="none" stroke-width="1" fill="none" fill-rule="evenodd">
    <path d="M19,0 C17.153394,0 15.640967,1.2894205 15.1875,3 L12.15625,3 L12,3 L11.90625,3 L3,3 C1.3550302,3 0,4.3550302 0,6 L0,45 C0,46.64497 1.3550302,48 3,48 L35,48 C36.64497,48 38,46.64497 38,45 L38,6 C38,4.3550302 36.64497,3 35,3 L26.15625,3 L26.0625,3 C26.0416718,2.99934886 26.0208282,2.99934886 26,3 L25.90625,3 L22.8125,3 C22.359033,1.2894205 20.846606,0 19,0 Z M19,2 C20.116666,2 21,2.8833339 21,4 C21.0000552,4.55226188 21.4477381,4.99994478 22,5 L25,5 L25,7 L13,7 L13,5 L16,5 C16.5522619,4.99994478 16.9999448,4.55226188 17,4 C17,2.8833339 17.883334,2 19,2 Z M3,5 L11,5 L11,8 C11.0000552,8.55226188 11.4477381,8.99994478 12,9 L26,9 C26.5522619,8.99994478 26.9999448,8.55226188 27,8 L27,5 L35,5 C35.56503,5 36,5.4349698 36,6 L36,45 C36,45.56503 35.56503,46 35,46 L3,46 C2.4349698,46 2,45.56503 2,45 L2,6 C2,5.4349698 2.4349698,5 3,5 Z M30,16.9375 C29.9471684,16.9437443 29.8949193,16.9541941 29.84375,16.96875 C29.822559,16.9784355 29.801713,16.9888585 29.78125,17 C29.5232923,17.0575212 29.298591,17.2148121 29.15625,17.4375 L25.84375,22.40625 L23.71875,20.28125 C23.5098355,20.0584928 23.2105909,19.9433987 22.90625,19.96875 C22.8639549,19.976469 22.8222016,19.9869073 22.78125,20 C22.4081406,20.06769 22.1054058,20.3405735 21.9994841,20.7046795 C21.8935623,21.0687854 22.0026747,21.4614789 22.28125,21.71875 L25.15625,24.59375 C25.1761651,24.6154818 25.1970182,24.6363349 25.21875,24.65625 L25.28125,24.71875 C25.2914384,24.7293924 25.3018576,24.7398116 25.3125,24.75 C25.322689,24.7606419 25.3331081,24.771061 25.34375,24.78125 C25.3539384,24.7918924 25.3643576,24.8023116 25.375,24.8125 C25.4151834,24.8361764 25.4569488,24.8570591 25.5,24.875 C25.5204681,24.8861316 25.5413138,24.8965544 25.5625,24.90625 C25.582969,24.9173799 25.6038147,24.9278027 25.625,24.9375 C25.635416,24.9376605 25.645834,24.9376605 25.65625,24.9375 C25.676719,24.9486299 25.6975647,24.9590527 25.71875,24.96875 C25.729166,24.9689105 25.739584,24.9689105 25.75,24.96875 C25.770469,24.9798799 25.7913147,24.9903027 25.8125,25 C25.822916,25.0001605 25.833334,25.0001605 25.84375,25 C25.8645784,25.0006406 25.8854216,25.0006406 25.90625,25 C25.916666,25.0001605 25.927084,25.0001605 25.9375,25 C25.9998665,25.0057768 26.0626335,25.0057768 26.125,25 C26.135416,25.0001605 26.145834,25.0001605 26.15625,25 C26.2312757,24.987418 26.3046519,24.9664534 26.375,24.9375 C26.3961862,24.9278044 26.4170319,24.9173816 26.4375,24.90625 C26.4692382,24.8973595 26.5005251,24.8869305 26.53125,24.875 C26.5529818,24.8550849 26.5738349,24.8342318 26.59375,24.8125 C26.6149353,24.8028027 26.635781,24.7923799 26.65625,24.78125 C26.6895116,24.7520785 26.7208285,24.7207616 26.75,24.6875 C26.7725506,24.6574296 26.793416,24.6261315 26.8125,24.59375 C26.8231424,24.5835616 26.8335616,24.5731424 26.84375,24.5625 L26.875,24.53125 C26.8869305,24.5005251 26.8973595,24.4692382 26.90625,24.4375 L30.84375,18.5625 C31.0924251,18.2534718 31.1349638,17.8266832 30.9521776,17.4746506 C30.7693914,17.1226179 30.3958301,16.9118813 30,16.9375 L30,16.9375 Z M7.71875,20 C7.16646527,20.0776651 6.78171,20.5883403 6.85937504,21.140625 C6.93704008,21.6929097 7.44771526,22.077665 8,22 L18,22 C18.3606359,22.0051003 18.6960814,21.8156247 18.8778877,21.5041272 C19.0596941,21.1926296 19.0596941,20.8073704 18.8778877,20.4958728 C18.6960814,20.1843753 18.3606359,19.9948997 18,20 L8,20 C7.96876718,19.9985345 7.93748282,19.9985345 7.90625,20 C7.87501715,19.998536 7.84373285,19.998536 7.8125,20 C7.78126704,19.9985408 7.74998296,19.9985408 7.71875,20 Z M30,29.9375 C29.9471684,29.9437443 29.8949193,29.9541941 29.84375,29.96875 C29.822559,29.9784355 29.801713,29.9888585 29.78125,30 C29.5232923,30.0575212 29.298591,30.2148121 29.15625,30.4375 L25.84375,35.40625 L23.71875,33.28125 C23.5098355,33.0584928 23.2105909,32.9433987 22.90625,32.96875 C22.8639549,32.976469 22.8222016,32.9869073 22.78125,33 C22.4081406,33.06769 22.1054058,33.3405735 21.9994841,33.7046795 C21.8935623,34.0687854 22.0026747,34.4614789 22.28125,34.71875 L25.15625,37.59375 C25.1761651,37.6154818 25.1970182,37.6363349 25.21875,37.65625 L25.28125,37.71875 C25.2914384,37.7293924 25.3018576,37.7398116 25.3125,37.75 C25.322689,37.7606419 25.3331081,37.771061 25.34375,37.78125 C25.3539384,37.7918924 25.3643576,37.8023116 25.375,37.8125 C25.4151834,37.8361764 25.4569488,37.8570591 25.5,37.875 C25.5204681,37.8861316 25.5413138,37.8965544 25.5625,37.90625 C25.582969,37.9173799 25.6038147,37.9278027 25.625,37.9375 C25.635416,37.9376605 25.645834,37.9376605 25.65625,37.9375 C25.676719,37.9486299 25.6975647,37.9590527 25.71875,37.96875 C25.729166,37.9689105 25.739584,37.9689105 25.75,37.96875 C25.770469,37.9798799 25.7913147,37.9903027 25.8125,38 C25.822916,38.0001605 25.833334,38.0001605 25.84375,38 C25.8645784,38.0006406 25.8854216,38.0006406 25.90625,38 C25.916666,38.0001605 25.927084,38.0001605 25.9375,38 C25.9998665,38.0057768 26.0626335,38.0057768 26.125,38 C26.135416,38.0001605 26.145834,38.0001605 26.15625,38 C26.2312757,37.987418 26.3046519,37.9664534 26.375,37.9375 C26.3961862,37.9278044 26.4170319,37.9173816 26.4375,37.90625 C26.4692382,37.8973595 26.5005251,37.8869305 26.53125,37.875 C26.5529818,37.8550849 26.5738349,37.8342318 26.59375,37.8125 C26.6149353,37.8028027 26.635781,37.7923799 26.65625,37.78125 C26.6895116,37.7520785 26.7208285,37.7207616 26.75,37.6875 C26.7725506,37.6574296 26.793416,37.6261315 26.8125,37.59375 C26.8231424,37.5835616 26.8335616,37.5731424 26.84375,37.5625 L26.875,37.53125 C26.8869305,37.5005251 26.8973595,37.4692382 26.90625,37.4375 L30.84375,31.5625 C31.0924251,31.2534718 31.1349638,30.8266832 30.9521776,30.4746506 C30.7693914,30.1226179 30.3958301,29.9118813 30,29.9375 L30,29.9375 Z M7.71875,33 C7.16646525,33.077665 6.78170996,33.5883403 6.859375,34.140625 C6.93704004,34.6929097 7.44771525,35.077665 8,35 L18,35 C18.3606359,35.0051003 18.6960814,34.8156247 18.8778877,34.5041272 C19.0596941,34.1926296 19.0596941,33.8073704 18.8778877,33.4958728 C18.6960814,33.1843753 18.3606359,32.9948997 18,33 L8,33 C7.96876718,32.9985345 7.93748282,32.9985345 7.90625,33 C7.87501715,32.998536 7.84373285,32.998536 7.8125,33 C7.78126704,32.9985408 7.74998296,32.9985408 7.71875,33 Z" id="Shape" fill="#000000" fill-rule="nonzero"></path>
  </g>
</svg>
