<svg xmlns="http://www.w3.org/2000/svg" width="46" height="48" viewBox="0 0 46 48">
  <g fill="none" fill-rule="evenodd" transform="translate(-2 -1)">
    <rect width="49" height="49"/>
    <path fill="#000000" fill-rule="nonzero" d="M12,1 C10.906937,1 10,1.9069372 10,3 L10,5 L4,5 C3.4777778,5 2.9453899,5.1913289 2.5683594,5.5683594 C2.1913289,5.9453899 2,6.4777778 2,7 L2,47 C2,47.522222 2.1913289,48.05461 2.5683594,48.431641 C2.9453899,48.808671 3.4777778,49 4,49 L46,49 C46.522222,49 47.05461,48.808671 47.431641,48.431641 C47.808671,48.05461 48,47.522222 48,47 L48,7 C48,6.4777778 47.808671,5.9453899 47.431641,5.5683594 C47.05461,5.1913289 46.522222,5 46,5 L40,5 L40,3 C40,1.9069372 39.093063,1 38,1 L36,1 C34.906937,1 34,1.9069372 34,3 L34,5 L16,5 L16,3 C16,1.9069372 15.093063,1 14,1 L12,1 Z M12,3 L14,3 L14,9 L12,9 L12,3 Z M36,3 L38,3 L38,9 L36,9 L36,3 Z M4,7 L10,7 L10,9 C10,10.0930628 10.906937,11 12,11 L14,11 C15.093063,11 16,10.0930628 16,9 L16,7 L34,7 L34,9 C34,10.0930628 34.906937,11 36,11 L38,11 C39.093063,11 40,10.0930628 40,9 L40,7 L46,7 L46,14 L4,14 L4,7 Z M4,16 L46,16 L46,47 L4,47 L4,16 Z M10,20 L10,21 L10,43 L30,43 L40,43 L40,20 L10,20 Z M12,22 L17,22 L17,27 L12,27 L12,22 Z M19,22 L24,22 L24,27 L19,27 L19,22 Z M26,22 L31,22 L31,27 L26,27 L26,22 Z M33,22 L38,22 L38,27 L33,27 L33,22 Z M12,29 L17,29 L17,34 L12,34 L12,29 Z M19,29 L24,29 L24,34 L19,34 L19,29 Z M26,29 L31,29 L31,34 L26,34 L26,29 Z M33,29 L38,29 L38,34 L33,34 L33,29 Z M12,36 L17,36 L17,41 L12,41 L12,36 Z M19,36 L24,36 L24,41 L19,41 L19,36 Z M26,36 L31,36 L31,41 L30,41 L26,41 L26,36 Z M33,36 L38,36 L38,41 L33,41 L33,36 Z"/>
  </g>
</svg>
