<svg xmlns="http://www.w3.org/2000/svg" width="50" height="50" viewBox="0 0 50 50">
  <g fill="none" fill-rule="evenodd">
    <rect width="50" height="50"/>
    <path fill="#000000" fill-rule="nonzero" d="M2.8007812,0 C1.267448,0 1.1842379e-15,1.2674479 0,2.8007812 L0,8 L0,9 L0,40 C5.52179053e-05,40.5522619 0.447738124,40.9999448 1,41 L27,41 C27.3606359,41.0051003 27.6960814,40.8156247 27.8778877,40.5041272 C28.0596941,40.1926296 28.0596941,39.8073704 27.8778877,39.4958728 C27.6960814,39.1843753 27.3606359,38.9948997 27,39 L2,39 L2,9 L42,9 L42,27 C41.9948997,27.3606359 42.1843753,27.6960814 42.4958728,27.8778877 C42.8073704,28.0596941 43.1926296,28.0596941 43.5041272,27.8778877 C43.8156247,27.6960814 44.0051003,27.3606359 44,27 L44,9 L44,8 L44,2.8007812 C44,1.267448 42.732552,1.1842379e-15 41.199219,0 L2.8007812,0 Z M2.8007812,2 L41.199219,2 C41.665885,2 42,2.3341146 42,2.8007812 L42,7 L2,7 L2,2.8007812 C2,2.3341148 2.3341146,2 2.8007812,2 Z M7,15 L7,17 L11,17 L11,15 L7,15 Z M14,15 L14,17 L37,17 L37,15 L14,15 Z M7,20 L7,22 L11,22 L11,20 L7,20 Z M14,20 L14,22 L37,22 L37,20 L14,20 Z M7,25 L7,27 L11,27 L11,25 L7,25 Z M14,25 L14,27 L37,27 L37,25 L14,25 Z M7,30 L7,32 L11,32 L11,30 L7,30 Z M14,30 L14,32 L30,32 L30,30 L14,30 Z M40,30 C34.488997,30 30,34.488997 30,40 C30,45.511003 34.488997,50 40,50 C45.511003,50 50,45.511003 50,40 C50,34.488997 45.511003,30 40,30 Z M40,32 C44.430123,32 48,35.569877 48,40 C48,44.430123 44.430123,48 40,48 C35.569877,48 32,44.430123 32,40 C32,35.569877 35.569877,32 40,32 Z M39,34 L39,39.5 L35.400391,42.199219 L36.599609,43.800781 L41,40.5 L41,34 L39,34 Z"/>
  </g>
</svg>
