<svg xmlns="http://www.w3.org/2000/svg" width="50" height="50" viewBox="0 0 50 50">
  <g fill="none" fill-rule="evenodd">
    <rect width="50" height="50"/>
    <path fill="#000000" fill-rule="nonzero" d="M21.09375,0 L20.96875,0.84375 L19.90625,7.40625 C18.595387,7.7826883 17.330512,8.2621723 16.15625,8.90625 L10.75,5.0625 L10.0625,4.5625 L9.46875,5.15625 L5.21875,9.40625 L4.625,10 L5.125,10.6875 L8.90625,16.125 C8.2558769,17.301813 7.7599264,18.557268 7.375,19.875 L0.84375,20.96875 L0,21.09375 L0,21.96875 L0,27.96875 L0,28.78125 L0.8125,28.9375 L7.34375,30.09375 C7.7270515,31.411369 8.2533453,32.664899 8.90625,33.84375 L5.0625,39.25 L4.5625,39.9375 L5.15625,40.53125 L9.40625,44.78125 L10,45.375 L10.6875,44.875 L16.09375,41.0625 C17.278442,41.71689 18.551064,42.210635 19.875,42.59375 L20.96875,49.15625 L21.09375,50 L21.9375,50 L27.9375,50 L28.78125,50 L28.9375,49.1875 L30.09375,42.625 C31.409096,42.239205 32.636364,41.684943 33.8125,41.03125 L39.3125,44.875 L40,45.375 L40.59375,44.78125 L44.84375,40.53125 L45.4375,39.9375 L44.9375,39.21875 L41.03125,33.8125 C41.67083,32.648275 42.185776,31.392917 42.5625,30.09375 L49.1875,28.9375 L50,28.78125 L50,27.96875 L50,21.96875 L50,21.09375 L49.15625,20.96875 L42.59375,19.90625 C42.214301,18.596329 41.675813,17.360931 41.03125,16.1875 L44.875,10.6875 L45.375,10 L44.78125,9.40625 L40.53125,5.15625 L39.9375,4.5625 L39.21875,5.0625 L33.84375,8.9375 C32.668539,8.2844523 31.411254,7.7906733 30.09375,7.40625 L28.9375,0.8125 L28.78125,0 L27.9375,0 L21.9375,0 L21.09375,0 Z M22.8125,2 L27.125,2 L28.21875,8.28125 L28.3125,8.90625 L28.96875,9.0625 C30.573153,9.4619521 32.06175,10.104512 33.4375,10.9375 L34,11.28125 L34.53125,10.90625 L39.6875,7.1875 L42.75,10.21875 L39.09375,15.46875 L38.71875,16 L39.03125,16.5625 C39.855736,17.934444 40.475974,19.436089 40.875,21.03125 L41.0625,21.65625 L41.6875,21.78125 L48,22.8125 L48,27.125 L41.6875,28.21875 L41.03125,28.34375 L40.875,28.96875 C40.480078,30.562575 39.855527,32.065902 39.03125,33.4375 L38.71875,34 L39.09375,34.53125 L42.8125,39.71875 L39.78125,42.75 L34.53125,39.09375 L34,38.71875 L33.4375,39.0625 C32.069259,39.895302 30.567544,40.531906 28.96875,40.9375 L28.34375,41.09375 L28.21875,41.71875 L27.125,48 L22.78125,48 L21.75,41.75 L21.65625,41.09375 L21,40.9375 C19.393889,40.540685 17.883819,39.925173 16.5,39.09375 L15.96875,38.75 L15.40625,39.125 L10.21875,42.75 L7.1875,39.6875 L10.84375,34.5625 L11.21875,34.03125 L10.90625,33.46875 C10.066177,32.080886 9.4005086,30.581151 9,28.96875 L8.84375,28.34375 L8.21875,28.21875 L2,27.125 L2,22.8125 L8.21875,21.78125 L8.875,21.65625 L9.03125,21.03125 C9.4360125,19.413143 10.069062,17.885885 10.90625,16.5 L11.25,15.9375 L10.875,15.40625 L7.25,10.21875 L10.28125,7.1875 L15.4375,10.84375 L15.96875,11.25 L16.53125,10.90625 C17.908621,10.078322 19.424128,9.4567353 21.03125,9.0625 L21.6875,8.90625 L21.78125,8.25 L22.8125,2 Z M25,16 C20.041484,16 16,20.041484 16,25 C16,29.958516 20.041484,34 25,34 C29.958516,34 34,29.958516 34,25 C34,20.041484 29.958516,16 25,16 Z M25,18 C28.877484,18 32,21.122516 32,25 C32,28.877484 28.877484,32 25,32 C21.122516,32 18,28.877484 18,25 C18,21.122516 21.122516,18 25,18 Z"/>
  </g>
</svg>
