<svg xmlns="http://www.w3.org/2000/svg" width="44" height="48" viewBox="0 0 44 48">
  <g fill="none" fill-rule="evenodd" transform="translate(-3 -1)">
    <rect width="50" height="50"/>
    <path fill="#000000" fill-rule="nonzero" d="M21,1 L21,4 L23,4 L23,5.09375 C11.796567,6.1060967 3,15.535646 3,27 C3,39.13842 12.86158,49 25,49 C37.13842,49 47,39.13842 47,27 C47,15.535646 38.203433,6.1060967 27,5.09375 L27,4 L29,4 L29,1 L21,1 Z M40.25,5.15625 L38.21875,7.15625 L42.84375,11.78125 L44.84375,9.75 L40.25,5.15625 Z M25,7 C36.05754,7 45,15.94246 45,27 C45,38.05754 36.05754,47 25,47 C13.94246,47 5,38.05754 5,27 C5,15.94246 13.94246,7 25,7 Z M14.1875,15.375 C13.8143906,15.44269 13.5116558,15.7155735 13.4057341,16.0796795 C13.2998123,16.4437854 13.4089247,16.8364789 13.6875,17.09375 L23.0625,26.46875 C23.016492,26.637102 23,26.817056 23,27 C23,28.104569 23.895431,29 25,29 C25.182944,29 25.362898,28.983508 25.53125,28.9375 L27.125,30.53125 C27.3652805,30.8294246 27.7547286,30.9642162 28.1279221,30.8783704 C28.5011156,30.7925247 28.7925247,30.5011156 28.8783704,30.1279221 C28.9642162,29.7547286 28.8294246,29.3652805 28.53125,29.125 L26.9375,27.53125 C26.983508,27.362898 27,27.182944 27,27 C27,25.895431 26.104569,25 25,25 C24.817056,25 24.637102,25.016492 24.46875,25.0625 L15.09375,15.6875 C14.8848355,15.4647428 14.5855909,15.3496487 14.28125,15.375 C14.2500172,15.3735345 14.2187328,15.3735345 14.1875,15.375 L14.1875,15.375 Z"/>
  </g>
</svg>
