<svg xmlns="http://www.w3.org/2000/svg" width="48" height="41" viewBox="0 0 48 41">
  <g fill="none" fill-rule="evenodd" transform="translate(-1 -5)">
    <rect width="50" height="50"/>
    <path fill="#000000" fill-rule="nonzero" d="M20.0922693,5 C15.61861,5.08278691 12.7621824,6.90064473 11.5336658,9.72267058 C10.3636655,12.410279 10.6257296,15.8067197 11.4738155,19.3184153 C11.0167559,19.8548827 10.656176,20.5777524 10.7855362,21.6647102 C10.9271192,22.8476673 11.2515005,23.6896691 11.713217,24.2817315 C11.9668092,24.606915 12.301775,24.6369706 12.6109726,24.7931034 C12.780714,25.7998002 13.059747,26.8097938 13.478803,27.6507704 C13.7196648,28.1341408 13.98959,28.5822673 14.2568579,28.9442406 C14.3751969,29.1045126 14.5503861,29.2003088 14.6758105,29.3352898 C14.6821307,30.5227403 14.6878667,31.5118381 14.5860349,32.7644901 C14.2746607,33.5190114 13.5492531,34.1288931 12.3715711,34.7197359 C11.1560741,35.3295502 9.57177153,35.8937689 7.97256858,36.5847395 C6.37336563,37.2757102 4.72554138,38.1181566 3.42394015,39.4424065 C2.12233892,40.7666563 1.20306297,42.5821938 1.05985037,44.9772561 L1,46 L2.01745636,46 L38.4064838,46 L39.4239401,46 L39.3640898,44.9772561 C39.2647353,43.3126226 38.7947375,41.9308565 38.0773067,40.7960382 L47.9825436,40.7960382 L49,40.7960382 L48.9401496,39.7732942 C48.818368,37.7243988 48.019219,36.1282868 46.9052369,34.9904622 C45.7912548,33.8526377 44.3940569,33.1388404 43.0448878,32.5539252 C41.6957186,31.96901 40.3699151,31.5258745 39.3640898,31.0198092 C38.3931204,30.5312813 37.8423686,30.0385921 37.5985037,29.4556126 C37.5187352,28.4439827 37.5028198,27.6222327 37.5087282,26.6581071 C37.6005817,26.5515608 37.7507813,26.4778029 37.8379052,26.3573001 C38.0659648,26.0418647 38.2959933,25.6577827 38.4962594,25.244314 C38.8367515,24.5413332 39.0676877,23.7094194 39.2144638,22.8679384 C39.4635668,22.7271973 39.7297832,22.7063439 39.9326683,22.4468085 C40.3447798,21.919628 40.6185833,21.2061648 40.7406484,20.1907557 L40.7406484,20.160675 C40.8449422,19.2797021 40.5628238,18.6894889 40.201995,18.2054292 C40.5975428,16.9022003 41.0863681,14.8420445 40.9201995,12.7006603 C40.82848,11.5186436 40.5309537,10.3295605 39.8129676,9.33162142 C39.1318244,8.38489185 38.016448,7.6882416 36.6109726,7.43653705 C35.6966063,6.41892068 34.256727,5.96258254 32.5710723,5.96258254 C30.2483166,6.00525045 28.4455238,6.58403564 27.1246883,7.61702128 C26.5220027,7.2428099 25.8195642,6.96573581 25.0299252,6.80484226 C24.0247434,5.49387665 22.2117932,5 20.1221945,5 L20.0922693,5 Z M20.1221945,6.92516508 C20.1342508,6.92516508 20.1401209,6.92512118 20.1521197,6.92516508 C22.0801349,6.93222081 23.3277815,7.50073293 23.6832918,8.12839325 L23.9226933,8.51944241 L24.3715711,8.57960382 C25.703555,8.76566659 26.4665506,9.30516831 27.0049875,10.0535583 C27.5434245,10.801948 27.8428803,11.8466099 27.9326683,13.0014674 C28.1122453,15.3111813 27.4514617,17.9989735 27.0349127,19.2582539 L26.7955112,20.0102715 L27.4538653,20.4013206 C27.4125734,20.3761298 27.819011,20.6546454 27.723192,21.4541453 C27.6105009,22.3992608 27.3866921,22.8878176 27.2144638,23.108584 C27.0422355,23.3293504 26.9524571,23.3185464 26.9451372,23.3191489 L26.1371571,23.3793103 L26.0473815,24.1614087 C25.958621,24.9943265 25.6254996,26.0109764 25.2394015,26.8085106 C25.0463529,27.2072778 24.8464603,27.5580149 24.6708229,27.8011739 C24.4951856,28.0443328 24.3097126,28.180467 24.4014963,28.1320616 L23.8927681,28.402788 L23.8927681,28.9743213 C23.8927681,30.3678088 23.8371407,31.511686 23.9825436,33.1254585 L23.9825436,33.2457814 L24.042394,33.3661042 C24.589076,34.8434162 25.8537747,35.7642823 27.244389,36.4644167 C28.6350034,37.1645511 30.2336193,37.6789254 31.7331671,38.3294204 C33.0166033,38.8861675 34.190746,39.54833 35.1446384,40.3749083 C35.1495557,40.3791687 35.1397345,40.400719 35.1446384,40.404989 C35.1903867,40.4500238 35.2405128,40.4903331 35.2942643,40.5253118 C35.3550577,40.5953209 35.4256151,40.6561129 35.5037406,40.705796 C35.5090937,40.7110479 35.528332,40.7005307 35.5336658,40.705796 C35.5633842,40.7351336 35.5943072,40.766277 35.6234414,40.7960382 C36.4310135,41.6210109 36.9395138,42.7113204 37.2094763,44.0748349 L3.21446384,44.0748349 C3.48523919,42.7119326 3.98942295,41.6212265 4.80049875,40.7960382 C5.82085264,39.7579295 7.2148638,38.9800492 8.72069825,38.3294204 C10.2265327,37.6787916 11.8142999,37.1643759 13.2094763,36.4644167 C14.6046527,35.7644575 15.894186,34.8448466 16.4413965,33.3661042 L16.4713217,33.2457814 L16.5012469,33.1254585 C16.6466163,31.5120788 16.5910224,30.3682439 16.5910224,28.9743213 L16.5910224,28.402788 L16.0822943,28.1320616 C16.1696471,28.1780057 15.9636948,28.0458431 15.7830424,27.8011739 C15.60239,27.5565095 15.383218,27.2072268 15.1845387,26.8085106 C14.787181,26.0110784 14.4640436,24.985645 14.3765586,24.1614087 L14.286783,23.3793103 L13.478803,23.3191489 C13.4715252,23.3185502 13.381695,23.3294197 13.2094763,23.108584 C13.0372576,22.8877454 12.8138883,22.3994581 12.7007481,21.4541453 C12.6055755,20.65445 13.0113735,20.3760519 12.9700748,20.4013206 L13.5985037,20.0102715 L13.4189526,19.3184153 C12.5174097,15.8307679 12.3614243,12.6590546 13.2992519,10.5047689 C14.2344432,8.35654042 16.1402907,7.00633649 20.1221945,6.92516508 Z M32.5710723,7.88774762 C32.5832626,7.88774762 32.5888742,7.88769265 32.6009975,7.88774762 C34.19522,7.89497661 35.18865,8.36988394 35.4438903,8.82024945 L35.6832918,9.21129861 L36.1321696,9.30154072 C37.2203049,9.45366255 37.8261659,9.84598308 38.2568579,10.4446075 C38.6875498,11.0432318 38.9309244,11.8966286 39.0049875,12.8510638 C39.1531129,14.7599343 38.6028275,17.0378214 38.2568579,18.0851064 L38.0174564,18.8070433 L38.6758105,19.1980924 C38.5879405,19.1442456 38.9287123,19.3305178 38.8553616,19.9501101 C38.7619663,20.7270297 38.5591204,21.116686 38.436409,21.273661 C38.3136975,21.4306361 38.2812289,21.3970237 38.3167082,21.3939839 L37.5087282,21.4541453 L37.4488778,22.2362436 C37.3768658,22.9122759 37.0792294,23.744209 36.7605985,24.4020543 C36.6012835,24.7309774 36.4528182,25.0190784 36.3117207,25.2142333 C36.2270626,25.3313267 36.16532,25.4185463 36.1321696,25.4548789 L36.1022444,25.4548789 C36.0983814,25.4595427 36.1023469,25.4832049 36.1022444,25.4849596 L35.5935162,25.7256053 L35.5935162,26.2971387 C35.5935162,27.4674003 35.5609672,28.4468406 35.6832918,29.8165811 L35.6832918,29.9369039 L35.7431421,30.0572267 C36.2241256,31.3554627 37.3406482,32.1379259 38.5261845,32.7344094 C39.7117209,33.3308929 41.041239,33.7843723 42.2967581,34.3286867 C43.5522772,34.8730012 44.6954883,35.4930718 45.5286783,36.3440939 C46.156435,36.9852865 46.5505827,37.8405035 46.7855362,38.8708731 L36.3715711,38.8708731 C35.1948428,37.8681518 33.8301451,37.1698627 32.4812968,36.5847395 C30.8881363,35.8936351 29.3230921,35.329376 28.1122195,34.7197359 C26.9504701,34.1348284 26.2150315,33.5402508 25.8977556,32.7945708 C25.7927991,31.5257118 25.8014693,30.5334558 25.80798,29.3352898 C25.9324899,29.1991046 26.1107329,29.1051123 26.2269327,28.9442406 C26.4893703,28.5809119 26.7411384,28.1339695 26.9750623,27.6507704 C27.383103,26.80791 27.6770728,25.7970202 27.8428928,24.7931034 C28.1439622,24.6369148 28.4633353,24.5988389 28.7107232,24.2817315 C29.1726694,23.6895969 29.4973295,22.8478647 29.638404,21.6647102 C29.7646289,20.6115092 29.4150864,19.9165024 28.9800499,19.3785767 C29.4475924,17.8521508 30.0447986,15.3838283 29.8478803,12.8510638 C29.7404015,11.468674 29.38677,10.0881991 28.5610973,8.94057227 C28.5565266,8.93421951 28.5657024,8.91682362 28.5610973,8.91049156 C29.4643601,8.30857407 30.7460563,7.92590785 32.5710723,7.88774762 Z"/>
  </g>
</svg>
