<svg xmlns="http://www.w3.org/2000/svg" width="336" height="56" viewBox="0 0 336 56">
  <g fill="#FFFFFF" fill-rule="evenodd">
    <path d="M21.9399193 27.7416718C22.0972729 27.5945865 22.2668322 27.4678881 22.4452656 27.3615612L31.7397588 20.3704425C32.2368717 19.8732572 33.0459519 19.877014 33.5515452 20.3788551 34.0563737 20.8814611 34.0601489 21.6945005 33.5599732 22.193977L26.6329479 31.3783795C26.4997185 31.6253606 26.3289291 31.8572165 26.120541 32.0656047 24.956831 33.2293146 23.0612829 33.2205132 21.8867157 32.045946 20.7182722 30.8775025 20.7034706 28.995576 21.8489516 27.8303813L21.8373743 27.818804 21.9399193 27.7416718zM24.0630748 49.946308C35.1362444 49.946308 44.1128219 41.052099 44.1128219 30.0805362 44.1128219 19.1089733 35.1362444 10.2147643 24.0630748 10.2147643 17.6240755 10.2147643 11.8940118 13.2222266 8.22566251 17.8967853L10.0293028 17.8967853C11.134627 17.8967853 12.0306693 18.7902601 12.0306693 19.8852288L12.0306693 20.1457847C12.0306693 21.2439717 11.1362426 22.1342282 10.030544 22.1342282L2.00012535 22.1342282C.895486621 22.1342282 0 21.2432058 0 20.1458887L0 12.2031046C0 11.104975.895805541 10.2147651 1.99808851 10.2147651L2.30008229 10.2147651C3.40359611 10.2147651 4.2981708 11.1034951 4.2981708 12.2030666L4.2981708 14.4503385C8.94816586 8.68981823 16.1020559 5 24.1257302 5 38.1402105 5 49.5011915 16.2567333 49.5011915 30.1426174 49.5011915 44.0285016 38.1402105 55.2852349 24.1257302 55.2852349 14.3690757 55.2852349 5.89849781 49.8294123 1.65208154 41.8288926 1.00661526 40.5399601 1.52381346 38.9675878 2.8188493 38.3110333 4.11388514 37.6544789 5.69635488 38.1623661 6.3533944 39.4454312 9.74772945 45.6909892 16.4038585 49.946308 24.0630748 49.946308zM19.4899329 0L28.5407364 0 28.5407364.22044605e-15C29.3636036.3384349e-15 30.0306693.667065675 30.0306693 1.48993289L30.0306693 1.48993289 30.0306693 1.48993289C30.0306693 2.3128001 29.3636036 2.97986577 28.5407364 2.97986577L19.4899329 2.97986577 19.4899329 2.97986577C18.6670657 2.97986577 18 2.3128001 18 1.48993289L18 1.48993289 18 1.48993289C18 .667065675 18.6670657.51158254e-16 19.4899329 0zM200.035001 36.7649997C200.035001 37.9650057 199.795004 39.0674947 199.315001 40.0724998 198.834999 41.0775049 198.190005 41.9474962 197.380001 42.6824999 196.569997 43.4175036 195.625006 43.9874979 194.545001 44.3925 193.464995 44.797502 192.310007 45 191.080001 45L176.005 45 176.005 13.0499987 191.395001 13.0499987C192.505006 13.0499987 193.509996 13.2899963 194.410001 13.7699988 195.310005 14.2500012 196.074998 14.872495 196.705001 15.6374988 197.335004 16.4025027 197.822499 17.272494 198.167501 18.2474989 198.512503 19.2225039 198.685001 20.2049941 198.685001 21.1949991 198.685001 22.8150072 198.280005 24.2924925 197.470001 25.6274992 196.659997 26.962506 195.535008 27.959996 194.095001 28.6199993 195.92501 29.1600021 197.372496 30.1649921 198.437501 31.6349995 199.502506 33.1050069 200.035001 34.8149898 200.035001 36.7649997zM196.885001 36.2249997C196.885001 35.4449957 196.750002 34.6875033 196.480001 33.9524996 196.21 33.2174959 195.827503 32.5725023 195.332501 32.0174995 194.837498 31.4624967 194.252504 31.0125012 193.577501 30.6674994 192.902497 30.3224977 192.175005 30.1499994 191.395001 30.1499994L179.155 30.1499994 179.155 42.2549999 191.080001 42.2549999C191.890005 42.2549999 192.647497 42.0900015 193.352501 41.7599999 194.057504 41.4299982 194.672498 40.9875026 195.197501 40.4324998 195.722504 39.877497 196.134999 39.2325034 196.435001 38.4974997 196.735002 37.762496 196.885001 37.0050036 196.885001 36.2249997zM179.155 15.7949988L179.155 27.5849993 190.135001 27.5849993C190.915005 27.5849993 191.642497 27.420001 192.317501 27.0899993 192.992504 26.7599976 193.569998 26.325002 194.050001 25.7849992 194.530003 25.2449965 194.905 24.6225027 195.175001 23.9174992 195.445002 23.2124956 195.580001 22.470003 195.580001 21.6899991 195.580001 20.879995 195.452502 20.1150026 195.197501 19.394999 194.9425 18.6749954 194.582503 18.0525016 194.117501 17.5274989 193.652499 17.0024963 193.105004 16.5825004 192.475001 16.2674989 191.844998 15.9524973 191.155005 15.7949988 190.405001 15.7949988L179.155 15.7949988zM205.345001 45L205.345001 21.5549991 208.405001 21.5549991 208.405001 45 205.345001 45zM205.345001 16.6499989L205.345001 12.1499987 208.405001 12.1499987 208.405001 16.6499989 205.345001 16.6499989zM215.290002 12.1499987L218.350002 12.1499987 218.350002 39.6899998C218.350002 40.5600042 218.589999 41.2424974 219.070002 41.7374999 219.550004 42.2325024 220.224998 42.4799999 221.095002 42.4799999 221.425004 42.4799999 221.815 42.4350003 222.265002 42.3449999 222.715004 42.2549994 223.135 42.1350006 223.525002 41.9849999L224.065002 44.46C223.494999 44.7000012 222.797506 44.8949992 221.972502 45.045 221.147498 45.1950008 220.435005 45.27 219.835002 45.27 218.424995 45.27 217.315006 44.872504 216.505002 44.0775 215.694998 43.282496 215.290002 42.1650071 215.290002 40.7249998L215.290002 12.1499987zM227.530002 12.1499987L230.590002 12.1499987 230.590002 39.6899998C230.590002 40.5600042 230.83 41.2424974 231.310002 41.7374999 231.790005 42.2325024 232.464998 42.4799999 233.335002 42.4799999 233.665004 42.4799999 234.055 42.4350003 234.505002 42.3449999 234.955005 42.2549994 235.375001 42.1350006 235.765003 41.9849999L236.305003 44.46C235.735 44.7000012 235.037507 44.8949992 234.212502 45.045 233.387498 45.1950008 232.675005 45.27 232.075002 45.27 230.664995 45.27 229.555006 44.872504 228.745002 44.0775 227.934998 43.282496 227.530002 42.1650071 227.530002 40.7249998L227.530002 12.1499987zM239.635003 45L239.635003 21.5549991 242.695003 21.5549991 242.695003 45 239.635003 45zM239.635003 16.6499989L239.635003 12.1499987 242.695003 12.1499987 242.695003 16.6499989 239.635003 16.6499989zM269.155004 45L266.095004 45 266.095004 31.9049995C266.095004 29.1149854 265.682508 27.0900056 264.857504 25.8299992 264.0325 24.5699929 262.765012 23.9399992 261.055004 23.9399992 260.154999 23.9399992 259.255008 24.1049975 258.355003 24.4349992 257.454999 24.7650008 256.622507 25.2299962 255.857503 25.8299992 255.092499 26.4300023 254.410006 27.1424952 253.810003 27.9674993 253.21 28.7925035 252.775005 29.6849946 252.505003 30.6449994L252.505003 45 249.445003 45 249.445003 21.5549991 252.235003 21.5549991 252.235003 26.8649993C253.195008 25.1549907 254.567494 23.7750044 256.352503 22.7249991 258.137512 21.6749938 260.079993 21.1499991 262.180004 21.1499991 263.47001 21.1499991 264.564999 21.3899967 265.465004 21.8699991 266.365008 22.3500015 267.085001 23.0249948 267.625004 23.8949992 268.165007 24.7650035 268.555003 25.8299929 268.795004 27.0899993 269.035005 28.3500056 269.155004 29.7449917 269.155004 31.2749995L269.155004 45zM285.085004 45.315C283.464996 45.315 281.987511 44.9775034 280.652504 44.3025 279.317498 43.6274966 278.162509 42.7350055 277.187504 41.6249999 276.212499 40.5149943 275.455007 39.240007 274.915004 37.7999997 274.375001 36.3599925 274.105004 34.8750072 274.105004 33.3449995 274.105004 31.7249914 274.367501 30.1725068 274.892504 28.6874994 275.417507 27.2024919 276.159999 25.9050048 277.120004 24.7949992 278.080009 23.6849936 279.227498 22.8000024 280.562504 22.1399991 281.897511 21.4799958 283.374996 21.1499991 284.995004 21.1499991 287.005015 21.1499991 288.744997 21.652494 290.215005 22.6574991 291.685012 23.6625042 292.945 24.9299916 293.995005 26.4599993L293.995005 21.5549991 296.740005 21.5549991 296.740005 45.09C296.740005 46.7100082 296.432508 48.1424939 295.817505 49.3875002 295.202502 50.6325064 294.37751 51.6749961 293.342505 52.5150003 292.3075 53.3550045 291.092512 53.9849983 289.697505 54.4050004 288.302498 54.8250025 286.825012 55.0350004 285.265005 55.0350004 282.564991 55.0350004 280.390013 54.5550052 278.740004 53.5950003 277.089996 52.6349955 275.755009 51.3450084 274.735004 49.7250002L276.625004 48.2400001C277.555009 49.7400077 278.784997 50.8424967 280.315004 51.5475003 281.845012 52.2525038 283.494996 52.6050003 285.265005 52.6050003 286.40501 52.6050003 287.484999 52.4475019 288.505005 52.1325003 289.52501 51.8174987 290.417501 51.3525033 291.182505 50.7375002 291.947509 50.1224971 292.555003 49.3425049 293.005005 48.3975001 293.455007 47.4524954 293.680005 46.3500064 293.680005 45.09L293.680005 40.4549998C292.78 41.9550074 291.550013 43.1399956 289.990005 44.01 288.429997 44.8800043 286.795013 45.315 285.085004 45.315zM285.940005 42.7499999C286.840009 42.7499999 287.725 42.5850016 288.595005 42.2549999 289.465009 41.9249982 290.252501 41.4825026 290.957505 40.9274998 291.662508 40.372497 292.255002 39.7500032 292.735005 39.0599998 293.215007 38.3699963 293.530004 37.6650033 293.680005 36.9449997L293.680005 29.6999994C293.350003 28.8599952 292.900008 28.0800029 292.330005 27.3599993 291.760002 26.6399957 291.115008 26.0250018 290.395005 25.5149992 289.675001 25.0049967 288.902509 24.6000007 288.077505 24.2999992 287.2525 23.9999977 286.420009 23.8499992 285.580005 23.8499992 284.259998 23.8499992 283.08251 24.1274964 282.047504 24.6824992 281.012499 25.237502 280.135008 25.9649947 279.415004 26.8649993 278.695001 27.7650038 278.147506 28.7849937 277.772504 29.9249994 277.397502 31.0650051 277.210004 32.2199936 277.210004 33.3899995 277.210004 34.6500059 277.435002 35.8499939 277.885004 36.9899997 278.335006 38.1300054 278.9575 39.1274955 279.752504 39.9824998 280.547508 40.8375041 281.469999 41.5124974 282.520004 42.0074999 283.57001 42.5025024 284.709998 42.7499999 285.940005 42.7499999z"/>
    <polygon points="307.733 45 305 45 318.044 29.733 306.156 14.044 312.333 14.044 321.311 25.933 331.444 14.044 334.2 14.044 322.578 27.644 335.756 45 329.556 45 319.311 31.444"/>
    <path d="M90.2250011,18.4949989 L80.0100007,18.4949989 L80.0100007,45 L73.8450004,45 L73.8450004,18.4949989 L63.63,18.4949989 L63.63,13.0499987 L90.2250011,13.0499987 L90.2250011,18.4949989 Z M93.6000012,45 L93.6000012,21.4199991 L99.6300015,21.4199991 L99.6300015,45 L93.6000012,45 Z M93.6000012,18.1349989 L93.6000012,12.1499987 L99.6300015,12.1499987 L99.6300015,18.1349989 L93.6000012,18.1349989 Z M141.705003,45 L135.675003,45 L135.675003,31.7699995 C135.675003,29.8799899 135.352506,28.5000037 134.707503,27.6299993 C134.0625,26.7599949 133.170008,26.3249993 132.030003,26.3249993 C130.829997,26.3249993 129.705008,26.7824947 128.655003,27.6974993 C127.604997,28.6125039 126.855005,29.804992 126.405003,31.2749995 L126.405003,45 L120.375002,45 L120.375002,31.7699995 C120.375002,29.8799899 120.052505,28.5000037 119.407502,27.6299993 C118.762499,26.7599949 117.870008,26.3249993 116.730002,26.3249993 C115.559996,26.3249993 114.442507,26.7749948 113.377502,27.6749993 C112.312497,28.5750038 111.555004,29.759992 111.105002,31.2299995 L111.105002,45 L105.075002,45 L105.075002,21.4199991 L110.520002,21.4199991 L110.520002,25.7849992 C111.390006,24.2549915 112.582494,23.0775033 114.097502,22.2524991 C115.61251,21.4274949 117.344992,21.014999 119.295002,21.014999 C121.275012,21.014999 122.804997,21.4949943 123.885002,22.4549991 C124.965008,23.4150039 125.655001,24.5999921 125.955003,26.0099992 C126.915007,24.3899911 128.129995,23.1525034 129.600003,22.2974991 C131.07001,21.4424948 132.749993,21.014999 134.640003,21.014999 C136.08001,21.014999 137.264998,21.2849964 138.195003,21.8249991 C139.125008,22.3650018 139.845001,23.0699948 140.355003,23.9399992 C140.865006,24.8100035 141.217502,25.7999937 141.412503,26.9099993 C141.607504,28.0200049 141.705003,29.1449937 141.705003,30.2849994 L141.705003,45 Z M157.905004,45.45 C156.014994,45.45 154.305011,45.1275032 152.775004,44.4825 C151.244996,43.8374967 149.940009,42.9600055 148.860003,41.8499999 C147.779998,40.7399943 146.947506,39.4500071 146.362503,37.9799997 C145.7775,36.5099923 145.485003,34.9650077 145.485003,33.3449995 C145.485003,31.6649911 145.77,30.0825068 146.340003,28.5974993 C146.910006,27.1124919 147.734998,25.8075049 148.815003,24.6824992 C149.895009,23.5574935 151.207496,22.6650024 152.752504,22.0049991 C154.297511,21.3449958 156.029994,21.014999 157.950004,21.014999 C159.870013,21.014999 161.587496,21.3449958 163.102504,22.0049991 C164.617512,22.6650024 165.907499,23.5499936 166.972504,24.6599992 C168.037509,25.7700048 168.847501,27.0599919 169.402504,28.5299993 C169.957507,30.0000068 170.235004,31.5299915 170.235004,33.1199995 C170.235004,33.5100015 170.227504,33.8849978 170.212504,34.2449996 C170.197504,34.6050014 170.160005,34.9049984 170.100004,35.1449996 L151.875004,35.1449996 C151.965004,36.0750043 152.190002,36.8999961 152.550004,37.6199997 C152.910005,38.3400033 153.375001,38.9549972 153.945004,39.4649998 C154.515006,39.9750024 155.16,40.3649985 155.880004,40.6349998 C156.600007,40.9050012 157.35,41.0399998 158.130004,41.0399998 C159.33001,41.0399998 160.462499,40.7475028 161.527504,40.1624998 C162.592509,39.5774969 163.320002,38.8050046 163.710004,37.8449997 L168.885004,39.2849998 C168.015,41.0850088 166.627514,42.5624941 164.722504,43.7174999 C162.817494,44.8725058 160.545017,45.45 157.905004,45.45 Z M164.025004,31.2299995 C163.875003,29.4599905 163.22251,28.0425047 162.067504,26.9774993 C160.912498,25.9124939 159.510012,25.3799992 157.860004,25.3799992 C157.05,25.3799992 156.292507,25.5224978 155.587504,25.8074992 C154.8825,26.0925007 154.260006,26.4899967 153.720004,26.9999993 C153.180001,27.5100019 152.737505,28.1249957 152.392504,28.8449994 C152.047502,29.565003 151.845004,30.3599951 151.785004,31.2299995 L164.025004,31.2299995 Z"/>
  </g>
</svg>
